<svg width="109" height="35" viewBox="0 0 109 35" fill="none" xmlns="http://www.w3.org/2000/svg">
<g clip-path="url(#clip0_6132_10423)">
<path d="M37.7336 8.16943C39.9435 8.16943 41.8213 8.85776 43.367 10.2344C43.7171 10.5726 43.9647 10.8382 44.1096 11.0314L44.327 11.3755C44.3028 11.4118 43.9768 11.6171 43.3489 11.9914C42.733 12.3658 42.0749 12.7824 41.3745 13.2413C41.1571 12.9756 40.9397 12.7643 40.7224 12.6073C39.9133 11.9914 38.9291 11.6835 37.7699 11.6835H37.6974C36.4294 11.6835 35.4151 11.9854 34.6543 12.5892C34.2316 12.9515 34.0203 13.3439 34.0203 13.7666C34.0203 14.0322 34.1351 14.2375 34.3645 14.3824C34.5939 14.5756 35.0407 14.787 35.7049 15.0164C36.6227 15.3183 38.0476 15.6383 39.9797 15.9764C40.6076 16.1213 41.145 16.2904 41.5918 16.4836C42.0145 16.6527 42.4371 16.8821 42.8598 17.1719C43.053 17.3048 43.3247 17.5463 43.6749 17.8965C44.5564 18.8625 44.9972 19.9494 44.9972 21.1569V21.2113C44.9972 22.443 44.5383 23.5962 43.6206 24.671C43.2341 25.0694 42.9564 25.317 42.7873 25.4136C42.3043 25.7517 41.9058 25.9872 41.5918 26.1201C40.3601 26.6876 39.0499 26.9714 37.6612 26.9714H37.5344C35.723 26.9714 34.0686 26.4944 32.5713 25.5404C32.2452 25.323 31.895 25.0393 31.5206 24.6891C31.1705 24.3509 30.9289 24.0853 30.7961 23.8921C30.5546 23.5902 30.3433 23.2762 30.1621 22.9502L33.1871 21.2113H33.2052L33.3501 21.4649C33.483 21.6701 33.6943 21.9117 33.9841 22.1894C34.5275 22.6966 35.2037 23.0588 36.0128 23.2762C36.5442 23.3969 37.0755 23.4574 37.6068 23.4574C38.6695 23.4574 39.6174 23.2219 40.4507 22.7509C40.6076 22.6664 40.8008 22.5154 41.0303 22.2981C41.3442 21.9237 41.5013 21.5494 41.5013 21.1751C41.5013 20.5109 40.988 19.9856 39.9616 19.5991C39.6235 19.4784 39.0016 19.3456 38.0959 19.2006C36.1517 18.8263 34.7026 18.4338 33.7486 18.0233C33.338 17.8542 32.9335 17.6368 32.535 17.3712C31.6173 16.7795 31.0134 16.0247 30.7236 15.107C30.5787 14.6964 30.5063 14.2617 30.5063 13.8028V13.6941C30.5063 12.5469 30.935 11.4722 31.7924 10.4699C32.1546 10.0955 32.4142 9.85406 32.5713 9.74536C32.9818 9.44348 33.3682 9.20195 33.7305 9.02083C34.9381 8.45327 36.2725 8.16943 37.7336 8.16943Z" fill="#061820"/>
<path d="M48.8627 15.6861H57.6478V15.668C57.4425 15.0522 56.9716 14.3518 56.235 13.5668C55.3172 12.782 54.3149 12.3895 53.2281 12.3895C51.5737 12.3895 50.2152 13.265 49.1525 15.0159L48.8627 15.6861ZM52.9927 8.89355H53.5179C55.281 8.89355 56.9776 9.59998 58.6079 11.0128C59.4048 11.7977 59.9543 12.474 60.2562 13.0415C61.1378 14.5994 61.5785 16.2295 61.5785 17.9322V18.4756C61.5785 18.8138 61.5542 18.9828 61.506 18.9828H48.5367C48.8145 20.2749 49.2733 21.241 49.9134 21.881C50.8915 22.9316 52.0024 23.4569 53.2462 23.4569C54.8161 23.4569 56.1323 22.6659 57.195 21.084C57.4003 20.6855 57.521 20.4802 57.5573 20.4682C59.6343 21.41 60.6849 21.8931 60.709 21.9172C60.54 22.3399 60.1596 22.9738 59.5679 23.8192C57.7927 25.9082 55.6976 26.9528 53.2825 26.9528H53.21C50.7224 26.9528 48.585 25.8479 46.7978 23.638C45.566 21.9112 44.9502 20.0213 44.9502 17.9685V17.896C44.9502 15.0703 46.031 12.6793 48.1925 10.723C49.7866 9.50336 51.3866 8.89355 52.9927 8.89355Z" fill="#061820"/>
<path d="M66.5297 17.5885V18.3131C66.5297 18.6512 66.6206 19.1402 66.8016 19.7803C66.9467 20.1787 67.1034 20.535 67.2729 20.8489C67.4539 21.1146 67.7136 21.4406 68.0514 21.8271C68.4257 22.2015 68.6854 22.4309 68.8304 22.5154C69.12 22.7087 69.3736 22.8656 69.5913 22.9864C70.3521 23.3124 71.0342 23.4754 71.6377 23.4754H71.8737C72.9484 23.4754 73.9628 23.1131 74.9169 22.3886C75.0858 22.2678 75.3272 22.0445 75.6411 21.7184C76.2209 21.0422 76.6135 20.3418 76.8183 19.6172C76.9878 19.0617 77.0719 18.5002 77.0719 17.9327C77.0719 16.5561 76.6196 15.3243 75.7137 14.2375C75.3272 13.8269 75.0918 13.5975 75.0071 13.5492C74.0409 12.7884 72.9722 12.408 71.8011 12.408H71.656C71.0159 12.408 70.3155 12.5771 69.5547 12.9152C69.1804 13.0843 68.764 13.3741 68.3049 13.7847C67.8703 14.2194 67.6045 14.5273 67.5082 14.7084C67.3271 14.9862 67.182 15.2337 67.0735 15.4511C66.965 15.6805 66.8437 15.9824 66.7114 16.3568C66.5901 16.9123 66.5297 17.3228 66.5297 17.5885ZM71.6377 8.91211C73.3892 8.91211 74.959 9.34079 76.3477 10.1982C76.722 10.4156 77.1749 10.7657 77.7059 11.2488C78.1528 11.6956 78.4368 12.0035 78.5575 12.1725C78.8471 12.5469 79.1068 12.9152 79.336 13.2775C80.1572 14.7265 80.5681 16.2904 80.5681 17.9689C80.5681 19.9614 79.9524 21.8029 78.7203 23.4935C78.5636 23.723 78.2497 24.0852 77.7784 24.5804L77.4523 24.8521C75.7618 26.2649 73.872 26.9714 71.7828 26.9714C70.2612 26.9714 68.8847 26.5366 67.6533 25.6672C67.4234 25.5102 67.1095 25.2446 66.7114 24.8702L66.5297 24.671V34.3255H63.0525L63.0342 34.3074V9.25624L63.0525 9.23813H66.5297V11.1401C66.965 10.6812 67.2363 10.4216 67.3454 10.3612C67.7075 10.0834 68.0215 9.87214 68.2873 9.72723C68.6616 9.52191 69.0359 9.36493 69.4102 9.25624C69.6876 9.17175 70.171 9.06909 70.8593 8.94832C71.0763 8.93625 71.336 8.92418 71.6377 8.91211Z" fill="#061820"/>
<path d="M82.6948 0H86.1726L86.1909 0.0181136V9.14734H90.6832L90.7009 9.16551V12.6433L90.6832 12.6614H86.1909V21.4103C86.1909 22.0865 86.4202 22.5393 86.8792 22.7688C87.1932 22.9379 87.5193 23.0224 87.857 23.0224C88.3283 23.0224 88.9982 22.8654 89.8682 22.5514L90.0126 22.479L91.3172 25.7575C91.027 25.8783 90.5564 26.0353 89.9041 26.2285C89.1311 26.4217 88.4551 26.5183 87.8753 26.5183H87.8393C86.692 26.5183 85.6173 26.1681 84.6151 25.4677C84.4462 25.347 84.2225 25.1538 83.9445 24.8881L83.6366 24.4896C83.4434 24.236 83.2928 23.9885 83.1843 23.7469C82.8581 23.0103 82.6948 22.2737 82.6948 21.5371V12.6614H80.1228L80.1045 12.6433V9.16551L80.1228 9.14734H82.6948V0Z" fill="#061820"/>
<path d="M100.254 8.89355C102.271 8.89355 103.998 9.66033 105.435 11.194V9.20147L105.489 9.16526H108.913L108.949 9.20147V26.4819L108.913 26.5181H105.489L105.435 26.4819V24.7248C104.082 26.2102 102.343 26.9528 100.218 26.9528H100.2C97.5555 26.9528 95.309 25.8841 93.4619 23.7467C92.0847 22.0199 91.3965 20.0817 91.3965 17.9322V17.9141C91.3965 15.2574 92.4231 12.9631 94.4763 11.0309C96.179 9.60602 98.1047 8.89355 100.254 8.89355ZM94.8927 17.9141C94.8927 19.8221 95.7138 21.3859 97.3561 22.6055C98.2736 23.161 99.1435 23.4388 99.9647 23.4388H100.363C101.522 23.4388 102.645 22.9678 103.732 22.0259C104.867 20.8666 105.435 19.5021 105.435 17.9322V17.9141C105.435 15.982 104.614 14.4242 102.971 13.2408C102.065 12.6853 101.172 12.4076 100.29 12.4076H100.001C98.5516 12.4076 97.2415 13.0778 96.0698 14.4182C95.2853 15.5291 94.8927 16.6945 94.8927 17.9141Z" fill="#061820"/>
<path d="M17.5754 6.99951L12.217 17.6788L8.57298 18.6553C6.19144 19.2934 3.74351 17.8801 3.10537 15.4985C2.46724 13.1169 3.88056 10.669 6.2621 10.0308L17.5754 6.99951Z" fill="#6DB1AE"/>
<path d="M6.74316 28.2826L12.1015 17.6032L15.7455 16.6269C18.1271 15.9887 20.575 17.4021 21.2132 19.7836C21.8513 22.1651 20.438 24.6131 18.0564 25.2512L6.74316 28.2826Z" fill="#061820"/>
</g>
<defs>
<clipPath id="clip0_6132_10423">
<rect width="109" height="34.3825" fill="white"/>
</clipPath>
</defs>
</svg>
