<?xml version="1.0" encoding="UTF-8"?> <svg xmlns="http://www.w3.org/2000/svg" width="512" height="512" viewBox="0 0 512 512" fill="none"><path fill-rule="evenodd" clip-rule="evenodd" d="M229.74 1.28022C198.175 4.46639 160.726 16.2388 133.193 31.6282C125.841 35.7373 119.491 39.5607 119.083 40.1246C118.674 40.6886 116.001 42.3385 113.141 43.791C99.3172 50.8155 55.7804 92.1445 49.2404 104.451C45.1438 112.161 42.6589 111.872 113.187 111.872C164.149 111.872 178.743 112.285 179.28 113.742C180.299 116.494 180.79 187.685 180.268 256.97C179.744 326.643 180.803 341.134 187.466 355.517C194.542 370.787 203.668 378.039 219.792 381.204C225.183 382.263 233.837 382.685 240.199 382.2C261.784 380.556 275.164 376.565 282.577 355.517L285.952 338.494L286.232 264.449C286.387 223.725 286.607 172.735 286.72 151.138L286.926 111.872H375.304H463.682V108.21C463.682 99.7839 424.253 60.5745 398.123 43.0161C387.028 35.5593 358.111 20.6246 354.771 20.6246C353.498 20.6246 352.115 20.0682 351.697 19.3876C351.28 18.7069 346.729 16.9059 341.584 15.3846C336.438 13.8649 331.561 12.1401 330.744 11.5538C329.927 10.9674 321.24 8.6862 311.44 6.4858C283.47 0.204695 257.059 -1.47814 229.74 1.28022Z" fill="black"></path><path fill-rule="evenodd" clip-rule="evenodd" d="M364.961 153.383C336.812 153.817 336.375 153.872 335.576 157.157C335.13 158.99 334.954 175.635 335.185 194.147L335.604 227.803L389.448 228.195L443.291 228.589V251.755V274.923H390.743C344.215 274.923 337.969 275.2 336.209 277.336C334.759 279.093 333.927 288.734 333.143 312.862C331.888 351.402 331.422 355.426 326.351 371.406C319.976 391.489 307.093 406.235 286.939 416.521C259.813 430.363 209.463 430.432 180.823 416.664C158.919 406.137 143.536 384.617 136.967 355.318C134.067 342.382 133.81 335.523 132.99 249.064C132.231 169.19 131.81 156.447 129.885 155.222C128.591 154.399 105.477 153.794 74.7859 153.781C25.4607 153.76 21.7503 153.941 19.4599 156.49C16.0986 160.231 9.26456 182.211 4.22926 205.476C0.434212 223.018 0.0406078 227.587 0.00198898 254.729C-0.0351445 280.612 0.423826 286.764 3.4049 300.353C6.96378 316.584 14.1395 340.944 17.7072 348.908C18.8272 351.409 21.8484 358.395 24.4225 364.431C28.8993 374.929 39.6947 394.147 45.5663 402.071C62.364 424.738 81.4417 444.791 98.6925 457.916C103.186 461.335 107.196 464.506 107.605 464.966C108.013 465.425 111.689 468.044 115.774 470.787C137.764 485.556 172.609 500.435 196.918 505.441C201.306 506.344 207.568 507.662 210.836 508.369C214.103 509.077 226 510.387 237.27 511.282C297.398 516.051 363.982 496.803 409.553 461.483C425.766 448.917 431.943 443.445 441.063 433.571C445.965 428.265 451.895 421.867 454.241 419.354C456.588 416.841 459.563 413.103 460.854 411.046C462.145 408.989 465.099 404.816 467.422 401.773C483.91 380.161 501.224 338.657 508.035 304.423C511.515 286.932 511.972 281.102 511.999 253.981C512.024 226.273 511.636 221.44 507.977 203.87C502.098 175.644 495.489 156.498 490.822 154.164C487.179 152.342 448.168 152.1 364.961 153.383Z" fill="#CE9C3B"></path></svg> 